<svg xmlns="http://www.w3.org/2000/svg" viewBox="0 0 50 50" width="50px" height="50px">
  <defs>
    <linearGradient id="customizeGradient" x1="0%" y1="0%" x2="100%" y2="100%" gradientUnits="userSpaceOnUse">
      <stop stop-color="#FFB830"/>
      <stop offset="1" stop-color="#FF8040"/>
    </linearGradient>
  </defs>
  <path d="M 31.148438 -0.0625 L 12.121094 18.964844 C 11.828125 19.253906 11.746094 19.695313 11.910156 20.070313 C 13.597656 23.914063 14.882813 28.789063 14.039063 29.632813 C 12.15625 31.515625 10.292969 32.285156 8.492188 33.03125 C 7.011719 33.644531 5.609375 34.226563 4.472656 35.363281 C 0.640625 39.195313 -1.546875 45.554688 1.445313 48.550781 C 2.359375 49.460938 3.667969 49.941406 5.238281 49.941406 C 8.265625 49.941406 11.953125 48.210938 14.636719 45.527344 C 15.886719 44.277344 16.804688 42.339844 17.695313 40.46875 C 18.515625 38.746094 19.359375 36.96875 20.363281 35.964844 C 20.613281 35.71875 21.105469 35.589844 21.796875 35.589844 C 24.839844 35.589844 29.832031 38.046875 29.882813 38.070313 C 30.269531 38.261719 30.730469 38.1875 31.035156 37.882813 L 36.371094 32.542969 L 44.925781 23.988281 C 44.964844 23.957031 45.015625 23.914063 45.039063 23.890625 C 45.050781 23.878906 45.054688 23.859375 45.066406 23.847656 L 50.0625 18.851563 Z M 7 45 C 5.894531 45 5 44.105469 5 43 C 5 41.898438 5.894531 41 7 41 C 8.105469 41 9 41.898438 9 43 C 9 44.105469 8.105469 45 7 45 Z M 36.371094 29.714844 L 20.285156 13.628906 L 23.152344 10.761719 C 23.308594 11.242188 23.59375 11.707031 24.027344 12.144531 C 25.898438 14.011719 29.164063 12.085938 29.800781 11.679688 C 32.054688 10.246094 33.023438 10.28125 33.113281 10.332031 C 33.25 10.613281 33.164063 11.53125 31.996094 14.292969 L 31.917969 14.476563 C 30.910156 16.867188 31.84375 18.304688 32.484375 18.953125 C 33.546875 20.011719 35.027344 19.640625 36.214844 19.339844 C 37.277344 19.074219 38 18.925781 38.351563 19.277344 C 38.785156 19.710938 38.5 20.792969 38.246094 21.746094 C 37.933594 22.9375 37.609375 24.164063 38.449219 25.007813 C 38.980469 25.539063 39.617188 25.765625 40.277344 25.808594 Z" fill="url(#customizeGradient)"/>
</svg>