<svg width="24" height="24" viewBox="0 0 24 24" fill="none" xmlns="http://www.w3.org/2000/svg">
  <path d="M19.27 5.33C17.94 4.71 16.5 4.26 15 4C14.85 4.26 14.67 4.62 14.53 4.9C12.93 4.65 11.35 4.65 9.76 4.9C9.62 4.62 9.43 4.26 9.28 4C7.78 4.26 6.34 4.71 5 5.33C2.25 9.47 1.51 13.5 1.92 17.45C3.7 18.82 5.43 19.64 7.12 20.15C7.5 19.63 7.84 19.06 8.11 18.46C7.55 18.25 7.01 18 6.51 17.71C6.66 17.6 6.8 17.48 6.93 17.36C10.5 18.99 14.34 18.99 17.87 17.36C18.01 17.48 18.15 17.6 18.29 17.71C17.78 18 17.25 18.26 16.69 18.46C16.96 19.06 17.3 19.63 17.68 20.15C19.38 19.64 21.11 18.82 22.89 17.45C23.37 12.91 22.2 8.91 19.27 5.33ZM8.57 15.13C7.55 15.13 6.71 14.17 6.71 13.01C6.71 11.84 7.53 10.88 8.57 10.88C9.61 10.88 10.45 11.84 10.43 13.01C10.43 14.17 9.59 15.13 8.57 15.13ZM15.43 15.13C14.41 15.13 13.57 14.17 13.57 13.01C13.57 11.84 14.39 10.88 15.43 10.88C16.47 10.88 17.31 11.84 17.29 13.01C17.29 14.17 16.47 15.13 15.43 15.13Z" fill="white"/>
</svg> 