<svg width="24" height="24" viewBox="0 0 24 24" fill="none" xmlns="http://www.w3.org/2000/svg">
  <path fill-rule="evenodd" clip-rule="evenodd" d="M12 2C6.477 2 2 6.477 2 12C2 16.418 4.865 20.166 8.839 21.489C9.339 21.581 9.521 21.278 9.521 21.016C9.521 20.782 9.513 20.135 9.508 19.283C6.726 19.89 6.139 17.957 6.139 17.957C5.684 16.812 5.029 16.51 5.029 16.51C4.125 15.867 5.098 15.88 5.098 15.88C6.101 15.952 6.63 16.929 6.63 16.929C7.521 18.48 8.97 18.005 9.541 17.752C9.631 17.108 9.889 16.633 10.175 16.366C7.955 16.095 5.619 15.25 5.619 11.4C5.619 10.288 6.01 9.382 6.649 8.677C6.547 8.427 6.197 7.415 6.747 6.065C6.747 6.065 7.587 5.798 9.497 7.065C10.294 6.84 11.15 6.73 12 6.726C12.85 6.73 13.707 6.84 14.505 7.065C16.413 5.798 17.252 6.065 17.252 6.065C17.803 7.415 17.453 8.427 17.351 8.677C17.991 9.382 18.379 10.288 18.379 11.4C18.379 15.26 16.039 16.091 13.813 16.356C14.175 16.687 14.499 17.339 14.499 18.33C14.499 19.732 14.487 20.69 14.487 21.016C14.487 21.281 14.666 21.587 15.175 21.485C19.137 20.158 22 16.413 22 12C22 6.477 17.522 2 12 2Z" fill="white"/>
</svg> 