<svg width="48" height="48" viewBox="0 0 48 48" fill="none" xmlns="http://www.w3.org/2000/svg">
  <path d="M34.752 25.842C34.704 21.66 38.208 19.428 38.382 19.32C36.426 16.464 33.366 16.098 32.268 16.062C29.706 15.792 27.216 17.586 25.914 17.586C24.57 17.586 22.53 16.098 20.334 16.14C17.52 16.182 14.892 17.754 13.464 20.166C10.506 25.08 12.696 32.316 15.54 36.432C16.95 38.448 18.612 40.686 20.79 40.6C22.92 40.506 23.718 39.21 26.292 39.21C28.83 39.21 29.578 40.6 31.8 40.542C34.092 40.506 35.538 38.538 36.888 36.504C38.478 34.194 39.122 31.908 39.15 31.788C39.09 31.77 34.806 30.126 34.752 25.842Z" fill="white"/>
  <path d="M31.14 13.122C32.274 11.712 33.024 9.764 32.82 7.8C31.152 7.878 29.064 9.002 27.888 10.368C26.856 11.568 25.944 13.59 26.172 15.48C28.026 15.63 29.964 14.508 31.14 13.122Z" fill="white"/>
</svg> 