<?xml version="1.0"?>
<svg xmlns="http://www.w3.org/2000/svg" viewBox="0 0 50 50" width="50px" height="50px">
  <defs>
    <linearGradient id="speedGradient" x1="0%" y1="0%" x2="100%" y2="100%" gradientUnits="userSpaceOnUse">
      <stop stop-color="#FFB830"/>
      <stop offset="1" stop-color="#FF8040"/>
    </linearGradient>
  </defs>
  <path d="M 26 4.0234375 L 26 7 C 26 7.553 25.552 8 25 8 C 24.448 8 24 7.553 24 7 L 24 4.0292969 C 23.355 4.0562969 22.706781 4.1035469 22.050781 4.1855469 C 19.313781 4.5275469 16.71475 5.3771875 14.34375 6.6171875 L 15.462891 8.5800781 C 15.738891 9.0590781 15.573703 9.6693125 15.095703 9.9453125 C 14.937703 10.036312 14.766656 10.080078 14.597656 10.080078 C 14.251656 10.080078 13.915469 9.9000781 13.730469 9.5800781 L 12.611328 7.6171875 C 9.7953281 9.4171875 7.3938437 11.817625 5.5898438 14.640625 C 5.6008438 14.646625 5.6120469 14.644391 5.6230469 14.650391 L 7.5957031 15.775391 C 8.0747031 16.051391 8.2388906 16.664578 7.9628906 17.142578 C 7.7768906 17.462578 7.4417031 17.642578 7.0957031 17.642578 C 6.9267031 17.642578 6.7537031 17.598813 6.5957031 17.507812 L 4.6230469 16.382812 C 4.6110469 16.375812 4.60475 16.363469 4.59375 16.355469 C 3.69575 18.075469 2.9984062 19.916328 2.5664062 21.861328 C 2.2594062 23.245328 2.0843906 24.628 2.0253906 26 L 5 26 C 5.552 26 6 26.447 6 27 C 6 27.553 5.552 28 5 28 L 2.03125 28 C 2.17825 31.42 3.0764844 34.725031 4.6464844 37.707031 L 6.5839844 36.638672 C 7.0589844 36.358672 7.673125 36.520141 7.953125 36.994141 C 8.233125 37.471141 8.0746563 38.083281 7.5976562 38.363281 L 5.6542969 39.433594 C 6.3942969 40.582594 7.2395 41.673453 8.1875 42.689453 C 8.3735 42.888453 8.6391094 43 8.9121094 43 L 12 43 L 12 41 C 12 39.895 12.895 39 14 39 L 36 39 C 37.105 39 38 39.895 38 41 L 38 43 L 41.087891 43 C 41.360891 43 41.6255 42.888453 41.8125 42.689453 C 42.7655 41.668453 43.613516 40.572969 44.353516 39.417969 L 42.439453 38.238281 C 41.962453 37.959281 41.803984 37.345141 42.083984 36.869141 C 42.363984 36.394141 42.976125 36.234625 43.453125 36.515625 L 45.357422 37.689453 C 46.915422 34.712453 47.805125 31.412953 47.953125 28.001953 L 45 28.001953 C 44.448 27.999953 44 27.553 44 27 C 44 26.447 44.448 26 45 26 L 47.972656 26 C 47.823656 22.548 46.891859 19.301297 45.380859 16.404297 L 43.128906 17.697266 C 42.970906 17.788266 42.799859 17.830078 42.630859 17.830078 C 42.284859 17.830078 41.948672 17.651078 41.763672 17.330078 C 41.487672 16.851078 41.650906 16.240844 42.128906 15.964844 L 44.378906 14.673828 C 42.550906 11.809828 40.112234 9.3804531 37.240234 7.5644531 L 36.001953 9.5644531 C 35.815953 9.8854531 35.480766 10.064453 35.134766 10.064453 C 34.965766 10.064453 34.793719 10.020688 34.636719 9.9296875 C 34.157719 9.6536875 33.993531 9.0424531 34.269531 8.5644531 L 35.505859 6.5703125 C 32.629859 5.0863125 29.417 4.1704375 26 4.0234375 z M 38.775391 18.642578 L 39 19 L 30.923828 26.095703 C 30.698659 24.624009 29.939952 23.324406 28.845703 22.40625 L 38.775391 18.642578 z M 25 23 C 25.53 23 26.033094 23.108875 26.496094 23.296875 L 26.503906 23.294922 C 27.971693 23.885759 29 25.312597 29 27 C 29 27.30189 28.962749 27.592749 28.900391 27.875 L 28.896484 27.876953 C 28.796234 28.323203 28.621797 28.740734 28.386719 29.117188 C 28.288943 29.273766 28.174424 29.419453 28.056641 29.560547 C 28.023062 29.600664 27.992143 29.642899 27.957031 29.681641 C 27.844931 29.805741 27.722381 29.918138 27.595703 30.027344 C 27.543082 30.072435 27.490518 30.117822 27.435547 30.160156 C 27.312948 30.255181 27.184153 30.343382 27.050781 30.423828 C 26.971354 30.47127 26.889583 30.514678 26.806641 30.556641 C 26.687483 30.617579 26.567149 30.675691 26.441406 30.724609 C 26.315472 30.772946 26.184604 30.810035 26.052734 30.845703 C 25.952011 30.873351 25.853772 30.906007 25.75 30.925781 C 25.506823 30.971337 25.257205 31 25 31 C 22.789 31 21 29.208 21 27 C 21 24.792 22.789 23 25 23 z M 14.998047 41 C 14.446047 41 13.998047 41.447 13.998047 42 L 13.998047 44.998047 C 13.998047 45.551047 14.446047 45.998047 14.998047 45.998047 L 35.001953 45.998047 C 35.553953 45.998047 36.001953 45.551047 36.001953 44.998047 L 36.001953 42 C 36.001953 41.447 35.553953 41 35.001953 41 L 14.998047 41 z" fill="url(#speedGradient)"/>
</svg>