<svg width="800" height="600" viewBox="0 0 800 600" fill="none" xmlns="http://www.w3.org/2000/svg">
  <!-- Background -->
  <rect width="800" height="600" fill="#0A0F18"/>
  
  <!-- Browser Window -->
  <rect x="50" y="50" width="700" height="500" rx="8" fill="#151C28"/>
  
  <!-- Browser Toolbar -->
  <rect x="50" y="50" width="700" height="40" rx="8" fill="#1E2738"/>
  
  <!-- Tabs -->
  <rect x="60" y="55" width="120" height="30" rx="4" fill="url(#tabGradient)"/>
  <rect x="190" y="55" width="120" height="30" rx="4" fill="#151C28"/>
  <rect x="320" y="55" width="120" height="30" rx="4" fill="#151C28"/>
  
  <!-- Address Bar -->
  <rect x="60" y="100" width="680" height="30" rx="4" fill="#1E2738" stroke="#2A3447"/>
  
  <!-- Buttons -->
  <circle cx="75" cy="70" r="6" fill="#FF5F57"/>
  <circle cx="95" cy="70" r="6" fill="#FEBC2E"/>
  <circle cx="115" cy="70" r="6" fill="#28C740"/>
  
  <!-- Bookmark Bar -->
  <rect x="50" y="140" width="700" height="30" rx="0" fill="#151C28"/>
  
  <!-- Bookmark Items -->
  <rect x="60" y="145" width="80" height="20" rx="4" fill="url(#favGradient)" opacity="0.1"/>
  <rect x="150" y="145" width="80" height="20" rx="4" fill="url(#favGradient)" opacity="0.1"/>
  <rect x="240" y="145" width="80" height="20" rx="4" fill="url(#favGradient)" opacity="0.1"/>
  
  <!-- Content Area -->
  <rect x="50" y="170" width="700" height="380" fill="#0A0F18"/>
  
  <!-- Content -->
  <!-- Header -->
  <rect x="100" y="200" width="600" height="50" rx="4" fill="url(#headerGradient)"/>
  <rect x="120" y="215" width="300" height="20" rx="4" fill="white" opacity="0.9"/>
  
  <!-- Cards -->
  <rect x="100" y="270" width="180" height="120" rx="8" fill="#151C28"/>
  <circle cx="190" cy="310" r="20" fill="url(#iconGradient)"/>
  <rect x="130" y="350" width="120" height="10" rx="4" fill="#2A3447"/>
  <rect x="130" y="370" width="100" height="8" rx="4" fill="#2A3447"/>
  
  <rect x="310" y="270" width="180" height="120" rx="8" fill="#151C28"/>
  <circle cx="400" cy="310" r="20" fill="url(#iconGradient)"/>
  <rect x="340" y="350" width="120" height="10" rx="4" fill="#2A3447"/>
  <rect x="340" y="370" width="100" height="8" rx="4" fill="#2A3447"/>
  
  <rect x="520" y="270" width="180" height="120" rx="8" fill="#151C28"/>
  <circle cx="610" cy="310" r="20" fill="url(#iconGradient)"/>
  <rect x="550" y="350" width="120" height="10" rx="4" fill="#2A3447"/>
  <rect x="550" y="370" width="100" height="8" rx="4" fill="#2A3447"/>
  
  <!-- Footer -->
  <rect x="100" y="420" width="600" height="100" rx="8" fill="#151C28"/>
  <rect x="120" y="440" width="300" height="15" rx="4" fill="url(#headerGradient)" opacity="0.7"/>
  <rect x="120" y="465" width="550" height="8" rx="4" fill="#2A3447"/>
  <rect x="120" y="485" width="500" height="8" rx="4" fill="#2A3447"/>
  <rect x="120" y="505" width="400" height="8" rx="4" fill="#2A3447"/>
  
  <!-- Sidebar -->
  <rect x="750" y="170" width="0" height="380" fill="#151C28"/>
  
  <!-- Gradients -->
  <defs>
    <linearGradient id="tabGradient" x1="60" y1="55" x2="180" y2="85" gradientUnits="userSpaceOnUse">
      <stop stop-color="#FFB830" stop-opacity="0.2"/>
      <stop offset="1" stop-color="#FF8040" stop-opacity="0.1"/>
    </linearGradient>
    <linearGradient id="headerGradient" x1="100" y1="200" x2="700" y2="250" gradientUnits="userSpaceOnUse">
      <stop stop-color="#FFB830"/>
      <stop offset="1" stop-color="#FF8040"/>
    </linearGradient>
    <linearGradient id="iconGradient" x1="170" y1="290" x2="210" y2="330" gradientUnits="userSpaceOnUse">
      <stop stop-color="#FFB830"/>
      <stop offset="1" stop-color="#FF8040"/>
    </linearGradient>
    <linearGradient id="favGradient" x1="60" y1="145" x2="140" y2="165" gradientUnits="userSpaceOnUse">
      <stop stop-color="#FFB830"/>
      <stop offset="1" stop-color="#FF8040"/>
    </linearGradient>
  </defs>
</svg> 