<svg width="800" height="600" viewBox="0 0 800 600" fill="none" xmlns="http://www.w3.org/2000/svg">
  <!-- Background -->
  <rect width="800" height="600" fill="#0A0F18"/>
  
  <!-- Browser Window -->
  <rect x="100" y="50" width="600" height="500" rx="8" fill="#151C28"/>
  
  <!-- Browser Toolbar -->
  <rect x="100" y="50" width="600" height="40" rx="8" fill="#1E2738"/>
  <rect x="100" y="90" width="600" height="1" fill="#2A3447"/>
  
  <!-- Address Bar -->
  <rect x="220" y="60" width="360" height="20" rx="4" fill="#1E2738" stroke="#2A3447"/>
  
  <!-- Buttons -->
  <circle cx="125" cy="70" r="6" fill="#FF5F57"/>
  <circle cx="145" cy="70" r="6" fill="#FEBC2E"/>
  <circle cx="165" cy="70" r="6" fill="#28C740"/>
  
  <!-- Logo in the content area -->
  <circle cx="400" cy="250" r="100" fill="url(#browserGradient)"/>
  <circle cx="400" cy="250" r="80" fill="#151C28"/>
  <circle cx="400" cy="250" r="60" fill="url(#browserGradient)"/>
  
  <!-- Navigation Symbols -->
  <rect x="250" y="350" width="300" height="20" rx="4" fill="url(#browserGradient)" opacity="0.7"/>
  <rect x="300" y="380" width="200" height="20" rx="4" fill="url(#browserGradient)" opacity="0.5"/>
  <rect x="350" y="410" width="100" height="20" rx="4" fill="url(#browserGradient)" opacity="0.3"/>
  
  <!-- Top sites grid -->
  <rect x="150" y="460" width="80" height="60" rx="4" fill="#1E2738"/>
  <rect x="240" y="460" width="80" height="60" rx="4" fill="#1E2738"/>
  <rect x="330" y="460" width="80" height="60" rx="4" fill="#1E2738"/>
  <rect x="420" y="460" width="80" height="60" rx="4" fill="#1E2738"/>
  <rect x="510" y="460" width="80" height="60" rx="4" fill="#1E2738"/>
  <rect x="600" y="460" width="50" height="60" rx="4" fill="#1E2738"/>
  
  <!-- Gradients -->
  <defs>
    <linearGradient id="browserGradient" x1="300" y1="150" x2="500" y2="350" gradientUnits="userSpaceOnUse">
      <stop stop-color="#FFB830"/>
      <stop offset="1" stop-color="#FF8040"/>
    </linearGradient>
  </defs>
</svg> 