<svg version="1.1" id="Layer_1" xmlns="http://www.w3.org/2000/svg" xmlns:xlink="http://www.w3.org/1999/xlink" x="0px" y="0px"
	 width="100%" viewBox="0 0 500 500" enable-background="new 0 0 500 500" xml:space="preserve">
<path fill="#000000" opacity="1.000000" stroke="none" 
	d="
M240.000000,501.000000 
	C160.000015,501.000000 80.500038,501.000000 1.000043,501.000000 
	C1.000028,334.333405 1.000028,167.666779 1.000014,1.000132 
	C167.666565,1.000088 334.333130,1.000088 500.999756,1.000044 
	C500.999847,167.666519 500.999847,334.333038 500.999939,500.999786 
	C414.166656,501.000000 327.333344,501.000000 240.000000,501.000000 
M134.491638,274.467651 
	C135.008011,274.343719 135.524399,274.219788 136.755585,274.314178 
	C138.841431,274.146576 140.927277,273.979004 143.497360,273.932617 
	C143.497360,273.932617 143.991501,274.003204 144.208282,274.697144 
	C145.688934,277.845886 147.169571,280.994659 148.789047,284.860321 
	C150.946045,289.443970 152.412964,294.545624 155.391098,298.512878 
	C163.898041,309.845306 172.589096,321.237457 184.739822,328.991150 
	C193.654099,334.679535 202.663788,340.689178 212.448013,344.403076 
	C221.180939,347.717957 230.991257,349.106140 240.402802,349.496674 
	C252.893066,350.014954 265.457794,348.738342 278.858978,348.390747 
	C286.411804,346.950378 294.080017,345.946014 301.494812,343.984009 
	C320.217224,339.029816 337.582855,330.325989 353.641571,320.077881 
	C370.098236,309.575836 385.444641,297.026276 398.659210,282.274750 
	C407.677277,272.207794 416.160431,261.770569 421.239319,249.094299 
	C424.664307,240.545883 424.872009,231.792450 419.507812,223.922287 
	C412.175293,213.164322 401.253632,207.605759 388.735840,205.918869 
	C377.957611,204.466446 366.991302,204.409897 355.616821,203.705734 
	C352.727509,191.930511 348.741699,179.191422 340.615936,168.812012 
	C332.333923,158.232986 323.627502,147.213852 312.859070,139.542969 
	C298.349457,129.207123 281.345367,123.144165 263.087494,121.299820 
	C247.084625,119.683258 231.246994,120.967842 216.265778,125.813423 
	C204.363632,129.663101 192.614365,135.123383 182.779236,143.503891 
	C178.478195,147.168793 174.291901,150.968399 169.304413,154.472076 
	C161.203583,156.616516 153.102753,158.760971 144.259018,160.895477 
	C134.150040,166.863358 124.041046,172.831223 113.299194,179.059433 
	C107.880325,184.104462 101.981155,188.729950 97.136513,194.276535 
	C84.731606,208.478729 71.573792,222.521393 71.758141,243.219345 
	C71.788162,246.589554 72.770134,250.333084 74.466469,253.227524 
	C78.040855,259.326447 83.702805,263.222351 90.081024,266.374847 
	C103.041374,272.780701 116.748085,274.667572 131.693039,274.545227 
	C132.464706,274.434448 133.236359,274.323669 134.491638,274.467651 
z"/>
<path fill="#FBFBFB" opacity="1.000000" stroke="none" 
	d="
M143.991501,274.003204 
	C143.991501,274.003204 143.497360,273.932617 143.254547,273.462158 
	C142.794220,271.537262 142.574249,270.083221 142.359589,268.628357 
	C140.902084,258.750702 139.445679,248.872879 137.992310,238.528854 
	C137.252579,218.503357 142.015167,200.100983 151.181046,183.078888 
	C156.542892,173.121307 163.702591,164.131821 170.053513,154.706833 
	C174.291901,150.968399 178.478195,147.168793 182.779236,143.503891 
	C192.614365,135.123383 204.363632,129.663101 216.265778,125.813423 
	C231.246994,120.967842 247.084625,119.683258 263.087494,121.299820 
	C281.345367,123.144165 298.349457,129.207123 312.859070,139.542969 
	C323.627502,147.213852 332.333923,158.232986 340.615936,168.812012 
	C348.741699,179.191422 352.727509,191.930511 355.616821,203.705734 
	C366.991302,204.409897 377.957611,204.466446 388.735840,205.918869 
	C401.253632,207.605759 412.175293,213.164322 419.507812,223.922287 
	C424.872009,231.792450 424.664307,240.545883 421.239319,249.094299 
	C416.160431,261.770569 407.677277,272.207794 398.659210,282.274750 
	C385.444641,297.026276 370.098236,309.575836 353.641571,320.077881 
	C337.582855,330.325989 320.217224,339.029816 301.494812,343.984009 
	C294.080017,345.946014 286.411804,346.950378 278.432281,347.922363 
	C279.187500,346.298370 280.172089,344.659760 281.589508,344.080658 
	C285.358124,342.540985 289.885620,342.279938 293.092316,340.046967 
	C305.078461,331.700500 317.641266,323.955078 327.049133,312.426880 
	C333.804382,304.149048 340.868561,296.065521 345.039062,285.638031 
	C348.054962,277.186493 351.029297,269.094452 354.281677,260.746765 
	C358.720184,246.971405 358.073792,233.051712 357.945221,219.181381 
	C357.938416,218.448288 357.343597,217.720627 357.015686,216.546967 
	C356.975403,205.443100 354.467834,203.542862 344.594238,207.012390 
	C342.573883,207.350204 340.920410,207.549072 339.353241,208.029480 
	C322.488922,213.199097 305.402496,217.768219 288.857269,223.815948 
	C275.246521,228.791031 262.267853,235.503113 249.040894,241.515442 
	C245.301544,243.215179 241.674133,245.161148 237.684235,247.146622 
	C235.532104,248.379181 233.793518,249.717957 231.832291,250.494370 
	C223.592010,253.756516 215.285141,256.850555 206.621216,260.048950 
	C198.157761,262.726074 190.075760,265.360321 181.569397,267.995422 
	C168.760544,269.998596 156.376022,272.000885 143.991501,274.003204 
z"/>
<path fill="#F6F6F6" opacity="1.000000" stroke="none" 
	d="
M344.997559,285.997559 
	C340.868561,296.065521 333.804382,304.149048 327.049133,312.426880 
	C317.641266,323.955078 305.078461,331.700500 293.092316,340.046967 
	C289.885620,342.279938 285.358124,342.540985 281.589508,344.080658 
	C280.172089,344.659760 279.187500,346.298370 277.998047,347.843445 
	C265.457794,348.738342 252.893066,350.014954 240.402802,349.496674 
	C230.991257,349.106140 221.180939,347.717957 212.448013,344.403076 
	C202.663788,340.689178 193.654099,334.679535 184.739822,328.991150 
	C172.589096,321.237457 163.898041,309.845306 155.391098,298.512878 
	C152.412964,294.545624 150.946045,289.443970 149.111343,284.465210 
	C150.785217,283.189117 152.136795,282.308197 153.488373,281.427277 
	C154.450012,280.643127 155.942673,280.708099 157.381897,281.019775 
	C163.723740,282.393372 170.190247,283.405640 176.337051,285.396454 
	C181.093292,286.936920 185.326477,290.025635 190.006180,291.888489 
	C194.374466,293.627411 198.968475,294.908844 203.564407,295.940399 
	C210.218048,297.433777 217.086700,298.079376 223.631180,299.915253 
	C229.237457,301.487976 234.487595,304.301147 239.951447,306.420868 
	C243.600311,307.836456 247.030792,309.137909 251.334824,307.348328 
	C254.090668,306.202423 258.580139,302.153198 260.927185,308.597076 
	C261.021118,308.854950 261.835632,308.974487 262.304718,308.952484 
	C266.969116,308.733459 272.342651,312.176575 275.731812,305.401733 
	C278.428741,309.222076 280.917572,310.006226 283.511810,306.436707 
	C283.737030,306.126801 284.472229,305.981476 284.912903,306.064697 
	C292.401367,307.479187 298.953705,299.773376 306.726868,303.808563 
	C307.012665,303.956940 307.704529,303.591888 308.061890,303.292664 
	C312.438721,299.627930 316.773041,295.896820 323.133850,296.927490 
	C323.270508,296.949646 323.437286,296.804932 323.586121,296.730347 
	C330.723572,293.153320 337.860535,289.575378 344.997559,285.997559 
z"/>
<path fill="#F2F2F2" opacity="1.000000" stroke="none" 
	d="
M345.039062,285.638031 
	C337.860535,289.575378 330.723572,293.153320 323.586121,296.730347 
	C323.437286,296.804932 323.270508,296.949646 323.133850,296.927490 
	C316.773041,295.896820 312.438721,299.627930 308.061890,303.292664 
	C307.704529,303.591888 307.012665,303.956940 306.726868,303.808563 
	C298.953705,299.773376 292.401367,307.479187 284.912903,306.064697 
	C284.472229,305.981476 283.737030,306.126801 283.511810,306.436707 
	C280.917572,310.006226 278.428741,309.222076 275.731812,305.401733 
	C272.342651,312.176575 266.969116,308.733459 262.304718,308.952484 
	C261.835632,308.974487 261.021118,308.854950 260.927185,308.597076 
	C258.580139,302.153198 254.090668,306.202423 251.334824,307.348328 
	C247.030792,309.137909 243.600311,307.836456 239.951447,306.420868 
	C234.487595,304.301147 229.237457,301.487976 223.631180,299.915253 
	C217.086700,298.079376 210.218048,297.433777 203.564407,295.940399 
	C198.968475,294.908844 194.374466,293.627411 190.006180,291.888489 
	C185.326477,290.025635 181.093292,286.936920 176.337051,285.396454 
	C170.190247,283.405640 163.723740,282.393372 157.381897,281.019775 
	C155.942673,280.708099 154.450012,280.643127 153.488373,281.427277 
	C152.136795,282.308197 150.785217,283.189117 149.041931,284.106750 
	C147.169571,280.994659 145.688934,277.845886 144.099884,274.350159 
	C156.376022,272.000885 168.760544,269.998596 181.793442,268.264221 
	C184.506226,269.478180 186.510422,270.600159 188.648193,271.331726 
	C192.529495,272.659912 196.586441,273.510620 200.395950,275.004639 
	C206.526871,277.409058 213.465622,277.592621 218.955658,281.773499 
	C219.403183,282.114319 220.255127,282.031281 220.906525,281.981079 
	C230.825256,281.216858 240.160095,287.591888 250.327728,284.414368 
	C250.996384,284.205383 252.278900,285.478058 253.079773,286.261932 
	C255.922958,289.044708 258.921570,288.889740 261.214691,286.011414 
	C263.209656,283.507294 265.148926,283.663757 267.174683,285.172424 
	C269.509430,286.911194 271.182159,287.207611 273.699036,285.156616 
	C275.010529,284.087891 278.040314,283.891235 279.655121,284.653687 
	C285.441742,287.385803 287.995392,287.076813 291.555389,281.990082 
	C295.855927,285.027618 300.261292,283.286255 304.562622,281.906952 
	C311.245605,279.763977 317.708313,276.258301 324.525055,275.399750 
	C331.249908,274.552765 335.372528,270.355927 340.539551,267.330750 
	C344.801605,264.835358 349.499115,263.083679 354.003662,261.002441 
	C351.029297,269.094452 348.054962,277.186493 345.039062,285.638031 
z"/>
<path fill="#F3F3F3" opacity="1.000000" stroke="none" 
	d="
M130.959930,274.235260 
	C116.748085,274.667572 103.041374,272.780701 90.081024,266.374847 
	C83.702805,263.222351 78.040855,259.326447 74.466469,253.227524 
	C72.770134,250.333084 71.788162,246.589554 71.758141,243.219345 
	C71.573792,222.521393 84.731606,208.478729 97.136513,194.276535 
	C101.981155,188.729950 107.880325,184.104462 113.627640,179.317169 
	C112.682625,182.505112 109.521118,186.661301 110.481796,188.140732 
	C113.646049,193.013687 108.901749,197.254089 110.661339,201.872070 
	C111.706551,204.615189 111.182678,208.071060 110.926407,211.170258 
	C110.456314,216.854965 109.630646,222.509537 109.034027,228.185181 
	C108.933022,229.146072 109.211975,230.153168 109.357773,231.132614 
	C109.778282,233.957626 110.078613,236.810181 110.682899,239.596222 
	C112.050407,245.901031 113.570534,252.172775 115.040581,258.455170 
	C115.074120,258.598511 115.276329,258.693848 115.356010,258.836151 
	C119.002594,265.348114 121.863319,272.665863 130.747803,273.798889 
	C130.835632,273.810120 130.889954,274.084015 130.959930,274.235260 
M106.486229,190.689316 
	C107.027000,191.024780 107.567764,191.360245 108.108536,191.695709 
	C108.241951,191.424149 108.375374,191.152588 108.508789,190.881012 
	C107.979187,190.677933 107.449577,190.474838 106.486229,190.689316 
z"/>
<path fill="#EDEDED" opacity="1.000000" stroke="none" 
	d="
M131.326477,274.390259 
	C130.889954,274.084015 130.835632,273.810120 130.747803,273.798889 
	C121.863319,272.665863 119.002594,265.348114 115.356010,258.836151 
	C115.276329,258.693848 115.074120,258.598511 115.040581,258.455170 
	C113.570534,252.172775 112.050407,245.901031 110.682899,239.596222 
	C110.078613,236.810181 109.778282,233.957626 109.357773,231.132614 
	C109.211975,230.153168 108.933022,229.146072 109.034027,228.185181 
	C109.630646,222.509537 110.456314,216.854965 110.926407,211.170258 
	C111.182678,208.071060 111.706551,204.615189 110.661339,201.872070 
	C108.901749,197.254089 113.646049,193.013687 110.481796,188.140732 
	C109.521118,186.661301 112.682625,182.505112 113.944077,179.187012 
	C124.041046,172.831223 134.150040,166.863358 144.625580,161.255478 
	C141.839767,168.416946 138.663406,175.207550 135.564789,182.033417 
	C135.169510,182.904190 135.103226,183.952209 135.015366,184.929886 
	C134.594986,189.608017 133.990601,194.284943 133.883316,198.972183 
	C133.731384,205.610641 133.959686,212.257751 134.021759,218.901199 
	C134.042770,221.150040 133.986038,223.401810 134.081024,225.647324 
	C134.282455,230.409958 132.884445,235.661743 137.988937,238.995102 
	C139.445679,248.872879 140.902084,258.750702 142.359589,268.628357 
	C142.574249,270.083221 142.794220,271.537262 143.012421,273.401550 
	C140.927277,273.979004 138.841431,274.146576 136.279556,273.987854 
	C135.205032,273.845337 134.606537,274.029114 134.008026,274.212891 
	C133.236359,274.323669 132.464706,274.434448 131.326477,274.390259 
z"/>
<path fill="#E8E8E8" opacity="1.000000" stroke="none" 
	d="
M137.992310,238.528854 
	C132.884445,235.661743 134.282455,230.409958 134.081024,225.647324 
	C133.986038,223.401810 134.042770,221.150040 134.021759,218.901199 
	C133.959686,212.257751 133.731384,205.610641 133.883316,198.972183 
	C133.990601,194.284943 134.594986,189.608017 135.015366,184.929886 
	C135.103226,183.952209 135.169510,182.904190 135.564789,182.033417 
	C138.663406,175.207550 141.839767,168.416946 144.997040,161.260437 
	C153.102753,158.760971 161.203583,156.616516 169.678955,154.589447 
	C163.702591,164.131821 156.542892,173.121307 151.181046,183.078888 
	C142.015167,200.100983 137.252579,218.503357 137.992310,238.528854 
z"/>
<path fill="#F3F3F3" opacity="1.000000" stroke="none" 
	d="
M134.249832,274.340271 
	C134.606537,274.029114 135.205032,273.845337 135.922150,273.878693 
	C135.524399,274.219788 135.008011,274.343719 134.249832,274.340271 
z"/>
<path fill="#EDEDED" opacity="1.000000" stroke="none" 
	d="
M354.281677,260.746765 
	C349.499115,263.083679 344.801605,264.835358 340.539551,267.330750 
	C335.372528,270.355927 331.249908,274.552765 324.525055,275.399750 
	C317.708313,276.258301 311.245605,279.763977 304.562622,281.906952 
	C300.261292,283.286255 295.855927,285.027618 291.555389,281.990082 
	C287.995392,287.076813 285.441742,287.385803 279.655121,284.653687 
	C278.040314,283.891235 275.010529,284.087891 273.699036,285.156616 
	C271.182159,287.207611 269.509430,286.911194 267.174683,285.172424 
	C265.148926,283.663757 263.209656,283.507294 261.214691,286.011414 
	C258.921570,288.889740 255.922958,289.044708 253.079773,286.261932 
	C252.278900,285.478058 250.996384,284.205383 250.327728,284.414368 
	C240.160095,287.591888 230.825256,281.216858 220.906525,281.981079 
	C220.255127,282.031281 219.403183,282.114319 218.955658,281.773499 
	C213.465622,277.592621 206.526871,277.409058 200.395950,275.004639 
	C196.586441,273.510620 192.529495,272.659912 188.648193,271.331726 
	C186.510422,270.600159 184.506226,269.478180 182.217773,268.263367 
	C190.075760,265.360321 198.157761,262.726074 206.682266,260.406250 
	C208.498642,261.459717 210.028824,263.030396 211.221680,262.806183 
	C220.812637,261.003845 229.693787,267.195404 239.284836,265.153870 
	C240.121826,264.975739 241.215256,266.240570 242.251053,266.695068 
	C243.424057,267.209717 244.648743,267.868103 245.881607,267.940216 
	C251.701767,268.280640 257.564392,268.926575 263.351288,268.544983 
	C270.702545,268.060242 278.433899,269.726837 285.272705,265.164520 
	C286.781586,264.157898 289.090302,264.065277 291.035309,264.047241 
	C298.932770,263.974060 305.435272,260.525085 312.279999,256.959381 
	C316.777649,254.616364 322.278412,254.311630 325.221680,249.272659 
	C325.344666,249.062149 326.552429,249.686142 327.064850,249.470322 
	C330.986420,247.818649 335.539581,246.821243 338.576782,244.130783 
	C342.311676,240.822296 344.746826,236.055161 347.810669,231.968689 
	C348.159973,231.502853 348.917603,231.168350 349.523499,231.098297 
	C353.259674,230.666428 353.467499,227.880936 354.089722,225.004593 
	C354.685486,222.250610 356.015289,219.655426 357.022491,216.990433 
	C357.343597,217.720627 357.938416,218.448288 357.945221,219.181381 
	C358.073792,233.051712 358.720184,246.971405 354.281677,260.746765 
z"/>
<path fill="#E8E8E8" opacity="1.000000" stroke="none" 
	d="
M357.015625,216.546967 
	C356.015289,219.655426 354.685486,222.250610 354.089722,225.004593 
	C353.467499,227.880936 353.259674,230.666428 349.523499,231.098297 
	C348.917603,231.168350 348.159973,231.502853 347.810669,231.968689 
	C344.746826,236.055161 342.311676,240.822296 338.576782,244.130783 
	C335.539581,246.821243 330.986420,247.818649 327.064850,249.470322 
	C326.552429,249.686142 325.344666,249.062149 325.221680,249.272659 
	C322.278412,254.311630 316.777649,254.616364 312.279999,256.959381 
	C305.435272,260.525085 298.932770,263.974060 291.035309,264.047241 
	C289.090302,264.065277 286.781586,264.157898 285.272705,265.164520 
	C278.433899,269.726837 270.702545,268.060242 263.351288,268.544983 
	C257.564392,268.926575 251.701767,268.280640 245.881607,267.940216 
	C244.648743,267.868103 243.424057,267.209717 242.251053,266.695068 
	C241.215256,266.240570 240.121826,264.975739 239.284836,265.153870 
	C229.693787,267.195404 220.812637,261.003845 211.221680,262.806183 
	C210.028824,263.030396 208.498642,261.459717 207.063705,260.363403 
	C215.285141,256.850555 223.592010,253.756516 231.832291,250.494370 
	C233.793518,249.717957 235.532104,248.379181 237.895294,247.408966 
	C239.450150,248.847733 240.482803,250.176620 241.572327,251.578674 
	C246.312897,252.024063 251.413528,252.833633 256.522736,252.891891 
	C261.805817,252.952179 267.104858,252.363876 272.378235,251.862488 
	C273.401703,251.765167 274.558533,250.955658 275.275787,250.141571 
	C277.603088,247.500031 279.568909,247.258469 281.104126,251.087601 
	C286.988678,247.982788 292.239685,243.562561 298.062103,242.600647 
	C303.975647,241.623672 307.697052,238.891861 311.501556,235.127609 
	C312.510193,234.129654 314.095856,233.720932 315.404480,233.019089 
	C319.676605,230.727844 324.204773,228.798767 328.144409,226.032455 
	C332.872162,222.712784 337.381134,218.954208 341.413361,214.827286 
	C343.300934,212.895340 343.847107,209.652740 345.001221,207.004150 
	C354.467834,203.542862 356.975403,205.443100 357.015625,216.546967 
z"/>
<path fill="#E5E5E5" opacity="1.000000" stroke="none" 
	d="
M344.594238,207.012390 
	C343.847107,209.652740 343.300934,212.895340 341.413361,214.827286 
	C337.381134,218.954208 332.872162,222.712784 328.144409,226.032455 
	C324.204773,228.798767 319.676605,230.727844 315.404480,233.019089 
	C314.095856,233.720932 312.510193,234.129654 311.501556,235.127609 
	C307.697052,238.891861 303.975647,241.623672 298.062103,242.600647 
	C292.239685,243.562561 286.988678,247.982788 281.104126,251.087601 
	C279.568909,247.258469 277.603088,247.500031 275.275787,250.141571 
	C274.558533,250.955658 273.401703,251.765167 272.378235,251.862488 
	C267.104858,252.363876 261.805817,252.952179 256.522736,252.891891 
	C251.413528,252.833633 246.312897,252.024063 241.572327,251.578674 
	C240.482803,250.176620 239.450150,248.847733 238.206436,247.256531 
	C241.674133,245.161148 245.301544,243.215179 249.040894,241.515442 
	C262.267853,235.503113 275.246521,228.791031 288.857269,223.815948 
	C305.402496,217.768219 322.488922,213.199097 339.353241,208.029480 
	C340.920410,207.549072 342.573883,207.350204 344.594238,207.012390 
z"/>
<path fill="#EDEDED" opacity="1.000000" stroke="none" 
	d="
M106.703094,190.480530 
	C107.449577,190.474838 107.979187,190.677933 108.508789,190.881012 
	C108.375374,191.152588 108.241951,191.424149 108.108536,191.695709 
	C107.567764,191.360245 107.027000,191.024780 106.703094,190.480530 
z"/>
</svg>